<?xml version="1.0" encoding="iso-8859-1"?>
<!-- Uploaded to: SVG Repo, www.svgrepo.com, Generator: SVG Repo Mixer Tools -->
<!DOCTYPE svg PUBLIC "-//W3C//DTD SVG 1.1//EN" "http://www.w3.org/Graphics/SVG/1.1/DTD/svg11.dtd">
<svg fill="#333" version="1.1" id="Capa_1" xmlns="http://www.w3.org/2000/svg" xmlns:xlink="http://www.w3.org/1999/xlink" 
	 width="800px" height="800px" viewBox="0 0 463.856 463.856"
	 xml:space="preserve">
<g>
	<g>
		<path d="M58.693,124.177l27.078-35.523c6.314-20.416,21.639-54.625,57.697-84.577L84.509,0c0,0-44.249,8.611-43.038,70.076
			C42.725,131.546,58.693,124.177,58.693,124.177z"/>
		<path d="M331.981,239.332c-62.003,0-112.262,50.26-112.262,112.263c0,62.007,50.259,112.262,112.262,112.262
			c62.016,0,112.275-50.255,112.275-112.262C444.257,289.592,393.997,239.332,331.981,239.332z M394.837,302.581l-75.942,110.764
			c-4.821,7.023-12.652,7.038-17.492,0.027l-32.166-46.582c-4.82-7.005-2.272-10.291,5.713-7.346l41.206,15.224l37.117-78.584
			c3.64-7.7,13.376-12.75,21.771-11.262l13.32,2.353C396.76,288.654,399.64,295.543,394.837,302.581z"/>
		<path d="M329.354,220.62c7.112,0,14.048,0.724,20.866,1.82c-5.082-7.094-10.184-15.698-12.975-24.803
			c-81.533-35.199-95.661-156.422-96.268-162.139c0.145,1.274,28.386,115.795,101.925,148.392
			c7.383-6.499,18.033-22.964,21.902-64.65C370.938,52.869,376.132,7.066,250.476,4.928c0,0-44.268-7.927-77.962-3.568
			C117.697,36.494,101.565,84.64,97.47,101.887l-0.66,33.358l-66.392,29.496c0,0-14.727,19.684-9.815,40.571
			c4.732,20.167,8.482,50.607,58.542,54.888v-55.639c-10.384-1.904-17.968-7.64-17.968-14.48c0-8.403,11.346-15.217,25.344-15.217
			c14.004,0,25.368,6.814,25.368,15.217c0,6.84-7.614,12.576-17.982,14.48v56.413c48.783,1.773,72.988-0.341,72.988-0.341
			l10.884,65.144l17.012,98.349h25.601c-13.877-20.777-22.005-45.714-22.005-72.521C198.376,279.376,257.126,220.62,329.354,220.62z
			 M134.461,132.461c-5.862,0-10.61-8.683-10.61-19.366c0-10.692,4.749-19.354,10.61-19.354c5.843,0,10.594,8.662,10.594,19.354
			C145.055,123.778,140.313,132.461,134.461,132.461z M193.474,136.141c-5.853,0-10.604-8.671-10.604-19.357
			c0-10.694,4.751-19.366,10.604-19.366c5.846,0,10.595,8.672,10.595,19.366C204.068,127.47,199.319,136.141,193.474,136.141z"/>
	</g>
</g>
</svg>